<?xml version="1.0" encoding="UTF-8" standalone="no"?>
<!DOCTYPE svg PUBLIC "-//W3C//DTD SVG 1.1//EN" "http://www.w3.org/Graphics/SVG/1.1/DTD/svg11.dtd">
<svg version="1.1" xmlns="http://www.w3.org/2000/svg" xmlns:xlink="http://www.w3.org/1999/xlink" preserveAspectRatio="xMidYMid meet" viewBox="0 0 640 640" width="256" height="256"><defs><path d="M37.43 155.17L106.35 155.17L106.35 511.25L37.43 511.25L37.43 155.17Z" id="b3UAotV3s"></path><path d="M66.35 75.17L77.43 75.17L77.43 155.17L66.35 155.17L66.35 75.17Z" id="hzXCKXeST"></path><path d="M66.35 508.68L77.43 508.68L77.43 619.7L66.35 619.7L66.35 508.68Z" id="aakIZXONL"></path><path d="M252.7 299.22L321.62 299.22L321.62 446.25L252.7 446.25L252.7 299.22Z" id="aUcmJKS3l"></path><path d="M360 127.4L428.92 127.4L428.92 312.33L360 312.33L360 127.4Z" id="azxPGdZHL"></path><path d="M281.62 446.25L292.7 446.25L292.7 580.24L281.62 580.24L281.62 446.25Z" id="b12Lzbunyq"></path><path d="M281.62 181.96L292.7 181.96L292.7 299.86L281.62 299.86L281.62 181.96Z" id="b4JT1sMhn"></path><path d="M147.5 202.23L216.42 202.23L216.42 384.86L147.5 384.86L147.5 202.23Z" id="hGla4rmhb"></path><path d="M176.42 52.26L187.5 52.26L187.5 199.29L176.42 199.29L176.42 52.26Z" id="a1NP6HIBHZ"></path><path d="M176.42 384.86L187.5 384.86L187.5 569.8L176.42 569.8L176.42 384.86Z" id="a6LB8hNEf5"></path><path d="M388.92 313.78L400 313.78L400 378.85L388.92 378.85L388.92 313.78Z" id="ctvTCp7zn"></path><path d="M388.92 88.75L400 88.75L400 127.4L388.92 127.4L388.92 88.75Z" id="d4OpxQIwpX"></path><path d="M470.74 144.12L539.66 144.12L539.66 267.03L470.74 267.03L470.74 144.12Z" id="b5dZjeOfTi"></path><path d="M499.66 64.12L510.74 64.12L510.74 144.12L499.66 144.12L499.66 64.12Z" id="acomI7TMo"></path><path d="M499.66 269.73L510.74 269.73L510.74 387.64L499.66 387.64L499.66 269.73Z" id="ae10CLfwp"></path></defs><g><g><g><use xlink:href="#b3UAotV3s" opacity="1" fill="#ffffff" fill-opacity="1"></use><g><use xlink:href="#b3UAotV3s" opacity="1" fill-opacity="0" stroke="#2500a4" stroke-width="6" stroke-opacity="1"></use></g></g><g><use xlink:href="#hzXCKXeST" opacity="1" fill="#2f1d90" fill-opacity="1"></use></g><g><use xlink:href="#aakIZXONL" opacity="1" fill="#2f1d90" fill-opacity="1"></use></g><g><use xlink:href="#aUcmJKS3l" opacity="1" fill="#ffffff" fill-opacity="1"></use><g><use xlink:href="#aUcmJKS3l" opacity="1" fill-opacity="0" stroke="#2500a4" stroke-width="6" stroke-opacity="1"></use></g></g><g><use xlink:href="#azxPGdZHL" opacity="1" fill="#ffffff" fill-opacity="1"></use><g><use xlink:href="#azxPGdZHL" opacity="1" fill-opacity="0" stroke="#2500a4" stroke-width="6" stroke-opacity="1"></use></g></g><g><use xlink:href="#b12Lzbunyq" opacity="1" fill="#2f1d90" fill-opacity="1"></use></g><g><use xlink:href="#b4JT1sMhn" opacity="1" fill="#2f1d90" fill-opacity="1"></use></g><g><use xlink:href="#hGla4rmhb" opacity="1" fill="#170090" fill-opacity="1"></use><g><use xlink:href="#hGla4rmhb" opacity="1" fill-opacity="0" stroke="#2500a4" stroke-width="6" stroke-opacity="1"></use></g></g><g><use xlink:href="#a1NP6HIBHZ" opacity="1" fill="#2f1d90" fill-opacity="1"></use></g><g><use xlink:href="#a6LB8hNEf5" opacity="1" fill="#2f1d90" fill-opacity="1"></use></g><g><use xlink:href="#ctvTCp7zn" opacity="1" fill="#2f1d90" fill-opacity="1"></use></g><g><use xlink:href="#d4OpxQIwpX" opacity="1" fill="#2f1d90" fill-opacity="1"></use></g><g><use xlink:href="#b5dZjeOfTi" opacity="1" fill="#170090" fill-opacity="1"></use><g><use xlink:href="#b5dZjeOfTi" opacity="1" fill-opacity="0" stroke="#2500a4" stroke-width="6" stroke-opacity="1"></use></g></g><g><use xlink:href="#acomI7TMo" opacity="1" fill="#2f1d90" fill-opacity="1"></use></g><g><use xlink:href="#ae10CLfwp" opacity="1" fill="#2f1d90" fill-opacity="1"></use></g></g></g></svg>