<?xml version="1.0" encoding="UTF-8" standalone="no"?>
<!DOCTYPE svg PUBLIC "-//W3C//DTD SVG 1.1//EN" "http://www.w3.org/Graphics/SVG/1.1/DTD/svg11.dtd">
<svg version="1.1" xmlns="http://www.w3.org/2000/svg" xmlns:xlink="http://www.w3.org/1999/xlink" preserveAspectRatio="xMidYMid meet" viewBox="0 0 640 640" width="256" height="256"><defs><path d="M588.31 83.95C599.36 83.95 608.31 92.91 608.31 103.95C608.31 179.44 608.31 385.9 608.31 461.39C608.31 472.43 599.36 481.39 588.31 481.39C476.99 481.39 163.01 481.39 51.69 481.39C40.64 481.39 31.69 472.43 31.69 461.39C31.69 385.9 31.69 179.44 31.69 103.95C31.69 92.91 40.64 83.95 51.69 83.95C163.01 83.95 476.99 83.95 588.31 83.95Z" id="h4beoLSS5K"></path><path d="M370.82 362.32C324.14 415.82 242.8 421.34 189.31 374.66C135.81 327.97 130.28 246.63 176.97 193.14C223.66 139.64 304.99 134.11 358.49 180.8C411.98 227.49 417.51 308.82 370.82 362.32Z" id="ds2paDdlL"></path><path d="M193.59 370.77C201.91 378.04 202.77 390.67 195.51 398.99C170.8 427.31 109.82 497.18 85.1 525.49C77.84 533.82 65.21 534.68 56.89 527.41C53.67 524.6 59.08 529.33 55.87 526.52C47.55 519.26 46.69 506.63 53.95 498.3C78.66 469.99 139.64 400.12 164.35 371.8C171.62 363.48 184.25 362.62 192.57 369.88C195.79 372.69 190.37 367.96 193.59 370.77Z" id="b7c4qffCzo"></path><path d="M544.78 132.2L570.05 132.2L506.87 189.63L482.75 170.1L447.19 201.48L346.06 290.71L296.67 240.17L142.75 372.26L112.89 343.55L52.01 396.39" id="asQmo7Tum"></path><path d="M394.3 236.38L346.66 282.81L295.44 224.09L169.17 346.99" id="b2xFV9rpMO"></path></defs><g><g><g><use xlink:href="#h4beoLSS5K" opacity="1" fill="#ffffff" fill-opacity="1"></use><g><use xlink:href="#h4beoLSS5K" opacity="1" fill-opacity="0" stroke="#1f0b8a" stroke-width="16" stroke-opacity="1"></use></g></g><g><use xlink:href="#ds2paDdlL" opacity="1" fill="#ffffff" fill-opacity="1"></use><g><use xlink:href="#ds2paDdlL" opacity="1" fill-opacity="0" stroke="#000386" stroke-width="12" stroke-opacity="1"></use></g></g><g><use xlink:href="#b7c4qffCzo" opacity="1" fill="#000c86" fill-opacity="1"></use></g><g><g><use xlink:href="#asQmo7Tum" opacity="1" fill-opacity="0" stroke="#001d6c" stroke-width="12" stroke-opacity="1"></use></g></g><g><g><use xlink:href="#b2xFV9rpMO" opacity="1" fill-opacity="0" stroke="#001f72" stroke-width="32" stroke-opacity="1"></use></g></g></g></g></svg>