<?xml version="1.0" encoding="UTF-8" standalone="no"?>
<!DOCTYPE svg PUBLIC "-//W3C//DTD SVG 1.1//EN" "http://www.w3.org/Graphics/SVG/1.1/DTD/svg11.dtd">
<svg version="1.1" xmlns="http://www.w3.org/2000/svg" xmlns:xlink="http://www.w3.org/1999/xlink" preserveAspectRatio="xMidYMid meet" viewBox="0 0 640 640" width="256" height="256"><defs><path d="M331.84 144.08L179.42 144.08L179.42 495.92L444.5 495.92L444.5 238.8L484.26 238.8L484.26 536.52L139.66 536.52L139.66 103.48L331.84 103.48L331.84 144.08ZM358.35 215.27L358.35 103.48L484.26 215.27L358.35 215.27Z" id="djbUZQh0q"></path><path d="" id="ac2z7e63tF"></path><path d="M212.03 272.26L287.84 272.26L287.84 280.3L212.03 280.3L212.03 272.26Z" id="hkKH2NnZI"></path><path d="M300.95 272.26L403.18 272.26L403.18 280.3L300.95 280.3L300.95 272.26Z" id="b2mpfkqisT"></path><path d="M212.03 295.03L261.42 295.03L261.42 303.07L212.03 303.07L212.03 295.03Z" id="c62Di2RuZ"></path><path d="M270.88 295.03L320.27 295.03L320.27 303.07L270.88 303.07L270.88 295.03Z" id="aVTLd2yPk"></path><path d="M332.23 295.03L403.18 295.03L403.18 303.07L332.23 303.07L332.23 295.03Z" id="e1xRjcy8ye"></path><path d="M212.03 315.98L287.84 315.98L287.84 324.02L212.03 324.02L212.03 315.98Z" id="b26e6mv4FK"></path><path d="M295.57 324.02L366.52 324.02L366.52 315.98L295.57 315.98L295.57 324.02Z" id="hgVu3SN6D"></path><path d="M375 315.98L403.18 315.98L403.18 324.02L375 324.02L375 315.98Z" id="a18pCulWZT"></path><path d="M212.03 334.86L287.84 334.86L287.84 342.91L212.03 342.91L212.03 334.86Z" id="bffeX2Bwc"></path><path d="M300.95 334.86L403.18 334.86L403.18 342.91L300.95 342.91L300.95 334.86Z" id="e2VvU84ux9"></path><path d="M212.03 357.64L261.42 357.64L261.42 365.68L212.03 365.68L212.03 357.64Z" id="el0GLIwQR"></path><path d="M270.88 357.64L320.27 357.64L320.27 365.68L270.88 365.68L270.88 357.64Z" id="a2aEn2DozT"></path><path d="M332.23 357.64L403.18 357.64L403.18 365.68L332.23 365.68L332.23 357.64Z" id="e1GFlqhSL"></path><path d="M212.03 381.18L287.84 381.18L287.84 389.22L212.03 389.22L212.03 381.18Z" id="bMaAdlRwu"></path><path d="M300.95 381.18L403.18 381.18L403.18 389.22L300.95 389.22L300.95 381.18Z" id="lyRfufCiJ"></path><path d="M212.03 403.95L261.42 403.95L261.42 411.99L212.03 411.99L212.03 403.95Z" id="c2MwIzpnED"></path><path d="M270.88 403.95L320.27 403.95L320.27 411.99L270.88 411.99L270.88 403.95Z" id="bWWqnkCGw"></path><path d="M332.23 403.95L403.18 403.95L403.18 411.99L332.23 411.99L332.23 403.95Z" id="hv7VxmPCR"></path></defs><g><g><g><use xlink:href="#djbUZQh0q" opacity="1" fill="#ffffff" fill-opacity="1"></use><g><use xlink:href="#djbUZQh0q" opacity="1" fill-opacity="0" stroke="#00227d" stroke-width="28" stroke-opacity="1"></use></g></g><g><g><use xlink:href="#ac2z7e63tF" opacity="1" fill-opacity="0" stroke="#00227d" stroke-width="2" stroke-opacity="1"></use></g></g><g><use xlink:href="#hkKH2NnZI" opacity="1" fill="#1e266f" fill-opacity="1"></use></g><g><use xlink:href="#b2mpfkqisT" opacity="1" fill="#1e266f" fill-opacity="1"></use></g><g><use xlink:href="#c62Di2RuZ" opacity="1" fill="#1e266f" fill-opacity="1"></use></g><g><use xlink:href="#aVTLd2yPk" opacity="1" fill="#1e266f" fill-opacity="1"></use></g><g><use xlink:href="#e1xRjcy8ye" opacity="1" fill="#1e266f" fill-opacity="1"></use></g><g><use xlink:href="#b26e6mv4FK" opacity="1" fill="#1e266f" fill-opacity="1"></use></g><g><use xlink:href="#hgVu3SN6D" opacity="1" fill="#1e266f" fill-opacity="1"></use></g><g><use xlink:href="#a18pCulWZT" opacity="1" fill="#1e266f" fill-opacity="1"></use></g><g><use xlink:href="#bffeX2Bwc" opacity="1" fill="#1e266f" fill-opacity="1"></use></g><g><use xlink:href="#e2VvU84ux9" opacity="1" fill="#1e266f" fill-opacity="1"></use></g><g><use xlink:href="#el0GLIwQR" opacity="1" fill="#1e266f" fill-opacity="1"></use></g><g><use xlink:href="#a2aEn2DozT" opacity="1" fill="#1e266f" fill-opacity="1"></use></g><g><use xlink:href="#e1GFlqhSL" opacity="1" fill="#1e266f" fill-opacity="1"></use></g><g><use xlink:href="#bMaAdlRwu" opacity="1" fill="#1e266f" fill-opacity="1"></use></g><g><use xlink:href="#lyRfufCiJ" opacity="1" fill="#1e266f" fill-opacity="1"></use></g><g><use xlink:href="#c2MwIzpnED" opacity="1" fill="#1e266f" fill-opacity="1"></use></g><g><use xlink:href="#bWWqnkCGw" opacity="1" fill="#1e266f" fill-opacity="1"></use></g><g><use xlink:href="#hv7VxmPCR" opacity="1" fill="#1e266f" fill-opacity="1"></use></g></g></g></svg>