<?xml version="1.0" encoding="UTF-8" standalone="no"?>
<!DOCTYPE svg PUBLIC "-//W3C//DTD SVG 1.1//EN" "http://www.w3.org/Graphics/SVG/1.1/DTD/svg11.dtd">
<svg version="1.1" xmlns="http://www.w3.org/2000/svg" xmlns:xlink="http://www.w3.org/1999/xlink" preserveAspectRatio="xMidYMid meet" viewBox="0 0 640 640" width="640" height="640"><defs><path d="M600 96.44C611.05 96.44 620 105.39 620 116.44C620 194.05 620 406.87 620 484.48C620 495.53 611.05 504.48 600 504.48C487.22 504.48 168.87 504.48 56.09 504.48C45.05 504.48 36.09 495.53 36.09 484.48C36.09 406.87 36.09 194.05 36.09 116.44C36.09 105.39 45.05 96.44 56.09 96.44C168.87 96.44 487.22 96.44 600 96.44Z" id="b1rmWGGVjO"></path><path d="M20 71.15L633.79 71.15L633.79 140.11L20 140.11L20 71.15Z" id="a2leEHWBoC"></path><path d="M601.61 121.03L625.75 121.03L625.75 529.08L601.61 529.08L601.61 121.03Z" id="b8Il4tscL"></path><path d="M101.61 465.4L162.53 465.4L162.53 498.74L101.61 498.74L101.61 465.4Z" id="aXTxpooWu"></path><path d="M221.61 421.72L282.53 421.72L282.53 498.74L221.61 498.74L221.61 421.72Z" id="a4xZkS0sCJ"></path><path d="M342.99 357.36L403.91 357.36L403.91 498.74L342.99 498.74L342.99 357.36Z" id="a8uSQEg6pc"></path><path d="M469.66 294.14L530.57 294.14L530.57 498.74L469.66 498.74L469.66 294.14Z" id="bWW6YepQT"></path><path d="M540.69 194.14L370.57 312.53L255.63 386.09L139.54 442.41L55.63 472.3" id="b6lCBmVnF"></path></defs><g><g><g><use xlink:href="#b1rmWGGVjO" opacity="1" fill="#ffffff" fill-opacity="1"></use><g><use xlink:href="#b1rmWGGVjO" opacity="1" fill-opacity="0" stroke="#03068a" stroke-width="12" stroke-opacity="1"></use></g></g><g><use xlink:href="#a2leEHWBoC" opacity="1" fill="#ffffff" fill-opacity="1"></use></g><g><use xlink:href="#b8Il4tscL" opacity="1" fill="#ffffff" fill-opacity="1"></use></g><g><use xlink:href="#aXTxpooWu" opacity="1" fill="#00038c" fill-opacity="1"></use></g><g><use xlink:href="#a4xZkS0sCJ" opacity="1" fill="#00038c" fill-opacity="1"></use></g><g><use xlink:href="#a8uSQEg6pc" opacity="1" fill="#00038c" fill-opacity="1"></use></g><g><use xlink:href="#bWW6YepQT" opacity="1" fill="#00038c" fill-opacity="1"></use></g><g><g><use xlink:href="#b6lCBmVnF" opacity="1" fill-opacity="0" stroke="#0004cf" stroke-width="6" stroke-opacity="1"></use></g></g></g></g></svg>