<?xml version="1.0" encoding="UTF-8" standalone="no"?>
<!DOCTYPE svg PUBLIC "-//W3C//DTD SVG 1.1//EN" "http://www.w3.org/Graphics/SVG/1.1/DTD/svg11.dtd">
<svg version="1.1" xmlns="http://www.w3.org/2000/svg" xmlns:xlink="http://www.w3.org/1999/xlink" preserveAspectRatio="xMidYMid meet" viewBox="0 0 640 640" width="256" height="256"><defs><path d="M599.8 102.33C610.84 102.33 619.8 111.29 619.8 122.33C619.8 209.3 619.8 450.22 619.8 537.2C619.8 548.24 610.84 557.2 599.8 557.2C485.72 557.2 163.47 557.2 49.39 557.2C38.35 557.2 29.39 548.24 29.39 537.2C29.39 450.22 29.39 209.3 29.39 122.33C29.39 111.29 38.35 102.33 49.39 102.33C163.47 102.33 485.72 102.33 599.8 102.33Z" id="b40OeRPUld"></path><path d="M339.53 131.05C354.12 131.05 365.95 142.87 365.95 157.46C365.95 191.92 365.95 268.89 365.95 303.35C365.95 317.94 354.12 329.76 339.53 329.76C282.33 329.76 137.13 329.76 79.93 329.76C65.34 329.76 53.51 317.94 53.51 303.35C53.51 268.89 53.51 191.92 53.51 157.46C53.51 142.87 65.34 131.05 79.93 131.05C137.13 131.05 282.33 131.05 339.53 131.05Z" id="a1S3ysHohe"></path><path d="M50.07 365.37L249.93 365.37L249.93 375.71L50.07 375.71L50.07 365.37Z" id="a7Pb0mie5f"></path><path d="M269.93 365.37L331.96 365.37L331.96 375.71L269.93 375.71L269.93 365.37Z" id="c24pDWymYx"></path><path d="M224.46 395.71L286.49 395.71L286.49 406.05L224.46 406.05L224.46 395.71Z" id="dqFUkhGjd"></path><path d="M357.23 365.37L467.5 365.37L467.5 375.71L357.23 375.71L357.23 365.37Z" id="a15BTfCSkU"></path><path d="M50.07 395.71L186.76 395.71L186.76 406.05L50.07 406.05L50.07 395.71Z" id="e2UmAy8xex"></path><path d="M139.66 423.28L249.93 423.28L249.93 433.61L139.66 433.61L139.66 423.28Z" id="a72doSvSES"></path><path d="M50.07 423.28L112.09 423.28L112.09 433.61L50.07 433.61L50.07 423.28Z" id="e1oTFVktxn"></path><path d="M302.09 395.71L412.36 395.71L412.36 406.05L302.09 406.05L302.09 395.71Z" id="gVTc8e2nr"></path><path d="M436.49 395.71L498.51 395.71L498.51 406.05L436.49 406.05L436.49 395.71Z" id="cF4DpyxNO"></path><path d="M492.09 365.37L571.35 365.37L571.35 375.71L492.09 375.71L492.09 365.37Z" id="e48mU3Pw72"></path><path d="M521.96 395.71L571.35 395.71L571.35 406.05L521.96 406.05L521.96 395.71Z" id="eWMxXP09"></path><path d="M50.07 483.48L112.09 483.48L112.09 505.3L50.07 505.3L50.07 483.48Z" id="jcrXKOReJ"></path><path d="M139.66 483.48L178.72 483.48L178.72 505.3L139.66 505.3L139.66 483.48Z" id="e1VUomBEy6"></path><path d="M200.34 483.48L239.39 483.48L239.39 505.3L200.34 505.3L200.34 483.48Z" id="auewnFvix"></path><path d="M266.49 483.48L328.51 483.48L328.51 505.3L266.49 505.3L266.49 483.48Z" id="bqggCEQIZ"></path><path d="M269.93 423.28L306.69 423.28L306.69 433.61L269.93 433.61L269.93 423.28Z" id="f1OIYNrfH5"></path><path d="M328.51 423.28L390.54 423.28L390.54 433.61L328.51 433.61L328.51 423.28Z" id="b2K7IJoKwI"></path><path d="M412.36 423.28L516.89 423.28L516.89 433.61L412.36 433.61L412.36 423.28Z" id="a2x38iHnv5"></path><path d="M534.59 423.28L569.05 423.28L569.05 433.61L534.59 433.61L534.59 423.28Z" id="b2DMQStd3C"></path><path d="M402.03 141.86L498.51 141.86L498.51 152.2L402.03 152.2L402.03 141.86Z" id="b5vSzVhZn"></path><path d="M516.89 141.86L561.22 141.86L561.22 152.2L516.89 152.2L516.89 141.86Z" id="bQSYNQJA1"></path><path d="M485.88 166.45L561.22 166.45L561.22 176.79L485.88 176.79L485.88 166.45Z" id="bNH2bg1d2"></path><path d="M445.47 166.45L474.86 166.45L474.86 176.79L445.47 176.79L445.47 166.45Z" id="b42NJJZX8d"></path><path d="M402.03 166.45L436.49 166.45L436.49 176.79L402.03 176.79L402.03 166.45Z" id="c28dYhAqZ7"></path></defs><g><g><g><use xlink:href="#b40OeRPUld" opacity="1" fill="#0514a8" fill-opacity="1"></use></g><g><use xlink:href="#a1S3ysHohe" opacity="1" fill="#ffffff" fill-opacity="1"></use></g><g><use xlink:href="#a7Pb0mie5f" opacity="1" fill="#ffffff" fill-opacity="1"></use></g><g><use xlink:href="#c24pDWymYx" opacity="1" fill="#ffffff" fill-opacity="1"></use></g><g><use xlink:href="#dqFUkhGjd" opacity="1" fill="#ffffff" fill-opacity="1"></use></g><g><use xlink:href="#a15BTfCSkU" opacity="1" fill="#ffffff" fill-opacity="1"></use></g><g><use xlink:href="#e2UmAy8xex" opacity="1" fill="#ffffff" fill-opacity="1"></use></g><g><use xlink:href="#a72doSvSES" opacity="1" fill="#ffffff" fill-opacity="1"></use></g><g><use xlink:href="#e1oTFVktxn" opacity="1" fill="#ffffff" fill-opacity="1"></use></g><g><use xlink:href="#gVTc8e2nr" opacity="1" fill="#ffffff" fill-opacity="1"></use></g><g><use xlink:href="#cF4DpyxNO" opacity="1" fill="#ffffff" fill-opacity="1"></use></g><g><use xlink:href="#e48mU3Pw72" opacity="1" fill="#ffffff" fill-opacity="1"></use></g><g><use xlink:href="#eWMxXP09" opacity="1" fill="#ffffff" fill-opacity="1"></use></g><g><use xlink:href="#jcrXKOReJ" opacity="1" fill="#ffffff" fill-opacity="1"></use></g><g><use xlink:href="#e1VUomBEy6" opacity="1" fill="#ffffff" fill-opacity="1"></use></g><g><use xlink:href="#auewnFvix" opacity="1" fill="#ffffff" fill-opacity="1"></use></g><g><use xlink:href="#bqggCEQIZ" opacity="1" fill="#ffffff" fill-opacity="1"></use></g><g><use xlink:href="#f1OIYNrfH5" opacity="1" fill="#ffffff" fill-opacity="1"></use></g><g><use xlink:href="#b2K7IJoKwI" opacity="1" fill="#ffffff" fill-opacity="1"></use></g><g><use xlink:href="#a2x38iHnv5" opacity="1" fill="#ffffff" fill-opacity="1"></use></g><g><use xlink:href="#b2DMQStd3C" opacity="1" fill="#ffffff" fill-opacity="1"></use></g><g><use xlink:href="#b5vSzVhZn" opacity="1" fill="#ffffff" fill-opacity="1"></use></g><g><use xlink:href="#bQSYNQJA1" opacity="1" fill="#ffffff" fill-opacity="1"></use></g><g><use xlink:href="#bNH2bg1d2" opacity="1" fill="#ffffff" fill-opacity="1"></use></g><g><use xlink:href="#b42NJJZX8d" opacity="1" fill="#ffffff" fill-opacity="1"></use></g><g><use xlink:href="#c28dYhAqZ7" opacity="1" fill="#ffffff" fill-opacity="1"></use></g></g></g></svg>